<svg width="202" height="101" viewBox="0 0 202 101" fill="none" xmlns="http://www.w3.org/2000/svg">
<path d="M34.7187 31.3978C34.6616 32.8618 34.1768 34.2815 33.318 35.473C32.4561 36.6677 31.2646 37.5803 29.8892 38.1064C28.5108 38.6293 27.0087 38.737 25.57 38.4169C24.1313 38.0969 22.8194 37.3617 21.7958 36.3064C20.7722 35.248 20.0846 33.9171 19.8184 32.472C19.549 31.0302 19.7138 29.5408 20.2906 28.1877C20.8673 26.8377 21.8307 25.6874 23.057 24.8761C24.2866 24.0649 25.7284 23.6339 27.202 23.6307C28.2097 23.6498 29.2016 23.8652 30.1237 24.2645C31.0459 24.667 31.8793 25.2437 32.5765 25.9631C33.2737 26.6856 33.8219 27.5349 34.1895 28.4665C34.5571 29.4014 34.7377 30.3964 34.7187 31.3978Z" fill="#283745"/>
<mask id="mask0_4_2523" style="mask-type:luminance" maskUnits="userSpaceOnUse" x="7" y="21" width="44" height="68">
<path d="M7.90967 21.4979H50.7028V88.2228H7.90967V21.4979Z" fill="white"/>
</mask>
<g mask="url(#mask0_4_2523)">
<path d="M8.48315 28.9259C9.16447 26.4288 10.2673 24.0648 11.7471 21.9384C10.8947 25.9122 11.4714 30.0604 13.376 33.6539C14.5073 35.8373 15.8604 37.894 17.4195 39.7953C20.3951 43.2558 26.9897 48.1264 29.9685 50.5253L37.7672 56.8093C37.7672 56.8093 46.9856 63.8696 49.4669 71.7761C50.2686 74.5996 50.3573 77.5816 49.7267 80.4495C49.0961 83.3173 47.7652 85.9887 45.8511 88.2228C45.8511 88.2228 47.7652 82.2241 44.574 76.5042C43.3952 74.2542 41.9945 72.1247 40.3911 70.1505C38.477 67.891 34.1514 64.364 30.748 61.7496L27.9815 59.6328L26.565 58.6441C24.4387 57.0913 20.2557 53.7734 20.2557 53.7734C20.2557 53.7734 10.9676 46.2916 8.48315 38.3851C7.74162 35.2764 7.74162 32.0346 8.48315 28.9259Z" fill="#D82E4A"/>
</g>
<mask id="mask1_4_2523" style="mask-type:luminance" maskUnits="userSpaceOnUse" x="35" y="11" width="10" height="18">
<path d="M35.2891 11.5602H44.2128V28.7992H35.2891V11.5602Z" fill="white"/>
</mask>
<g mask="url(#mask1_4_2523)">
<path d="M42.9421 28.289C43.4237 26.7584 43.6614 25.1644 43.6519 23.561C43.5822 21.1621 43.0149 19.8913 40.6731 17.7016C38.3344 15.5119 38.477 15.7242 37.7672 14.5264C37.3109 13.6042 37.0922 12.587 37.1303 11.5602C36.2873 12.8405 35.8437 14.3362 35.8532 15.8668C35.9229 17.559 36.6327 18.8298 38.477 20.3857C39.7066 21.3142 40.803 22.4075 41.7379 23.6307C42.8723 25.1835 42.9421 28.289 42.9421 28.289Z" fill="#283745"/>
</g>
<path d="M44.4316 23.6307C44.4316 23.6307 44.7168 28.5743 40.7461 35.492C36.7755 42.4098 27.3447 47.4927 27.3447 47.4927L33.5146 52.4331C33.5146 52.4331 40.2486 47.5625 43.7946 41.1391C45.4583 38.081 46.3361 34.6618 46.3456 31.1855C46.222 28.5648 45.5724 25.9979 44.4316 23.6307Z" fill="#283745"/>
<path d="M25.9283 59.1384L19.8281 54.4104C17.8982 56.5779 16.45 59.1289 15.5754 61.8922C14.967 64.1232 14.6786 66.427 14.7229 68.7403C14.6532 72.0581 16.2123 76.7862 16.2123 76.7862C16.0729 75.3095 16.2409 73.8201 16.7099 72.4099C17.2834 70.6638 18.044 68.9843 18.9788 67.3998C21.1749 63.727 25.9283 59.1384 25.9283 59.1384Z" fill="#283745"/>
<mask id="mask2_4_2523" style="mask-type:luminance" maskUnits="userSpaceOnUse" x="16" y="70" width="10" height="19">
<path d="M16.6304 70.1726H25.5541V88.2228H16.6304V70.1726Z" fill="white"/>
</mask>
<g mask="url(#mask2_4_2523)">
<path d="M24.0109 88.2228C24.6574 86.4102 24.9711 84.4993 24.9331 82.5758C24.7936 80.5984 24.3658 78.9759 22.0969 76.9288C19.8279 74.8816 19.191 74.0355 18.9089 73.0468C18.6142 72.1564 18.4463 71.2279 18.4114 70.293C18.4114 70.293 15.5752 75.658 17.6319 79.1153C19.6885 82.5758 20.0402 82.224 22.0272 84.8352C22.8447 85.8651 23.5134 87.0059 24.0109 88.2228Z" fill="#283745"/>
</g>
<path d="M70.5275 37.4441C71.6841 37.6913 72.6095 38.2649 73.3035 39.168C74.0038 40.0648 74.3555 41.0884 74.3555 42.2356C74.3555 43.9024 73.7725 45.2239 72.6063 46.2031C71.4465 47.1759 69.824 47.6608 67.7388 47.6608H58.4602V27.7346H67.4346C69.4532 27.7346 71.0345 28.2004 72.1753 29.1289C73.3225 30.051 73.8992 31.3059 73.8992 32.8936C73.8992 34.0692 73.5887 35.0453 72.9739 35.8217C72.3655 36.6012 71.5479 37.1399 70.5275 37.4441ZM63.315 35.7963H66.4966C67.2888 35.7963 67.8973 35.6252 68.3219 35.2766C68.7529 34.9217 68.9684 34.402 68.9684 33.7175C68.9684 33.0425 68.7529 32.5228 68.3219 32.1584C67.8973 31.7971 67.2888 31.6133 66.4966 31.6133H63.315V35.7963ZM66.8895 43.744C67.7008 43.744 68.3282 43.5633 68.7782 43.1989C69.225 42.8282 69.45 42.2926 69.45 41.5891C69.45 40.8888 69.2155 40.3405 68.7529 39.9413C68.287 39.5451 67.6501 39.3455 66.8388 39.3455H63.315V43.744H66.8895Z" fill="#283745"/>
<path d="M83.5838 27.7346V47.6608H78.729V27.7346H83.5838Z" fill="#283745"/>
<path d="M98.0957 47.8635C96.2197 47.8635 94.499 47.4293 92.9367 46.5579C91.3712 45.6896 90.129 44.4727 89.21 42.9073C88.2974 41.345 87.8411 39.5863 87.8411 37.6342C87.8411 35.6916 88.2974 33.9424 89.21 32.3865C90.129 30.8337 91.3712 29.62 92.9367 28.7485C94.499 27.8802 96.2197 27.4429 98.0957 27.4429C99.9622 27.4429 101.677 27.8802 103.242 28.7485C104.804 29.62 106.034 30.8337 106.931 32.3865C107.834 33.9424 108.287 35.6916 108.287 37.6342C108.287 39.5863 107.831 41.345 106.918 42.9073C106.012 44.4727 104.782 45.6896 103.229 46.5579C101.673 47.4293 99.9622 47.8635 98.0957 47.8635ZM98.0957 43.427C99.6833 43.427 100.954 42.901 101.911 41.8425C102.865 40.7778 103.343 39.3771 103.343 37.6342C103.343 35.8786 102.865 34.4748 101.911 33.4259C100.954 32.3706 99.6833 31.8414 98.0957 31.8414C96.4796 31.8414 95.1961 32.3674 94.2423 33.4132C93.2853 34.4526 92.8099 35.8596 92.8099 37.6342C92.8099 39.4025 93.2853 40.8095 94.2423 41.8552C95.1961 42.9041 96.4796 43.427 98.0957 43.427Z" fill="#283745"/>
<path d="M127.724 34.1485C127.724 35.2988 127.458 36.354 126.926 37.3174C126.4 38.2744 125.588 39.0476 124.492 39.637C123.392 40.2201 122.027 40.5117 120.398 40.5117H117.394V47.6608H112.539V27.7346H120.398C121.995 27.7346 123.339 28.0103 124.429 28.5585C125.525 29.1004 126.349 29.8577 126.9 30.8274C127.449 31.7908 127.724 32.8999 127.724 34.1485ZM120.03 36.6456C120.959 36.6456 121.653 36.4301 122.109 35.9991C122.565 35.5618 122.793 34.9439 122.793 34.1485C122.793 33.3562 122.565 32.7415 122.109 32.3105C121.653 31.8732 120.959 31.6514 120.03 31.6514H117.394V36.6456H120.03Z" fill="#283745"/>
<path d="M144.224 44.1369H136.783L135.592 47.6608H130.509L137.721 27.7346H143.336L150.549 47.6608H145.415L144.224 44.1369ZM142.969 40.3976L140.497 33.0964L138.063 40.3976H142.969Z" fill="#283745"/>
<path d="M164.463 47.6608L160.318 40.1314H159.152V47.6608H154.297V27.7346H162.448C164.019 27.7346 165.357 28.0103 166.466 28.5585C167.572 29.1004 168.399 29.8514 168.95 30.8148C169.498 31.7718 169.774 32.8365 169.774 34.009C169.774 35.3273 169.397 36.5125 168.646 37.5582C167.901 38.5976 166.799 39.3328 165.338 39.7638L169.939 47.6608H164.463ZM159.152 36.6963H162.156C163.05 36.6963 163.718 36.4808 164.159 36.0498C164.606 35.6125 164.831 34.9946 164.831 34.1992C164.831 33.4481 164.606 32.8555 164.159 32.4246C163.718 31.9873 163.05 31.7654 162.156 31.7654H159.152V36.6963Z" fill="#283745"/>
<path d="M185.927 47.6608L179.222 38.8638V47.6608H174.367V27.7346H179.222V36.4681L185.864 27.7346H191.568L183.849 37.4948L191.86 47.6608H185.927Z" fill="#283745"/>
<path d="M57.345 60.7751C57.345 59.4315 57.6365 58.2336 58.2196 57.1752C58.8027 56.1104 59.6139 55.2834 60.6533 54.6908C61.6991 54.1013 62.8874 53.8035 64.2152 53.8035C65.8377 53.8035 67.2225 54.2344 68.3728 55.0964C69.5295 55.952 70.3027 57.1182 70.6925 58.5949H67.0419C66.763 58.0308 66.3732 57.5998 65.8757 57.302C65.375 56.9977 64.811 56.8456 64.1772 56.8456C63.1441 56.8456 62.3138 57.2069 61.6801 57.9231C61.0463 58.6329 60.7294 59.5836 60.7294 60.7751C60.7294 61.9761 61.0463 62.9363 61.6801 63.6525C62.3138 64.3623 63.1441 64.7172 64.1772 64.7172C64.811 64.7172 65.375 64.5715 65.8757 64.2736C66.3732 63.9694 66.763 63.5321 67.0419 62.9553H70.6925C70.3027 64.4352 69.5295 65.6014 68.3728 66.4538C67.2225 67.3094 65.8377 67.7341 64.2152 67.7341C62.8874 67.7341 61.6991 67.4394 60.6533 66.8468C59.6139 66.2573 58.8027 65.4366 58.2196 64.3877C57.6365 63.3324 57.345 62.1282 57.345 60.7751Z" fill="#283745"/>
<path d="M75.3276 53.9682V62.144C75.3276 62.9648 75.5304 63.5954 75.9361 64.0327C76.3417 64.4732 76.9311 64.6918 77.7107 64.6918C78.487 64.6918 79.0828 64.4732 79.4979 64.0327C79.9099 63.5954 80.119 62.9648 80.119 62.144V53.9682H83.4528V62.1187C83.4528 63.3451 83.1897 64.3813 82.6669 65.2242C82.1503 66.0608 81.4532 66.6946 80.5754 67.1256C79.7039 67.5566 78.7279 67.772 77.6473 67.772C76.573 67.772 75.6097 67.5629 74.7572 67.1383C73.9016 66.7168 73.2298 66.083 72.7418 65.2369C72.2506 64.3845 72.0066 63.3451 72.0066 62.1187V53.9682H75.3276Z" fill="#283745"/>
<path d="M92.0737 67.6326L89.2343 62.4736H88.4358V67.6326H85.1021V53.9682H90.692C91.7726 53.9682 92.6885 54.1583 93.4427 54.5386C94.2032 54.9125 94.7673 55.4259 95.1412 56.085C95.5215 56.7378 95.7116 57.4635 95.7116 58.2653C95.7116 59.1779 95.4518 59.9955 94.9384 60.7117C94.4314 61.4215 93.6772 61.9254 92.6821 62.2201L95.8384 67.6326H92.0737ZM88.4358 60.1159H90.5019C91.1103 60.1159 91.5667 59.9701 91.8709 59.6723C92.1751 59.3681 92.3272 58.9466 92.3272 58.4047C92.3272 57.8818 92.1751 57.473 91.8709 57.1752C91.5667 56.8804 91.1103 56.7315 90.5019 56.7315H88.4358V60.1159Z" fill="#283745"/>
<path d="M102.058 67.7721C101.06 67.7721 100.163 67.6136 99.3712 67.2904C98.5853 66.9608 97.9547 66.4792 97.4825 65.8454C97.0071 65.2053 96.76 64.4352 96.7346 63.5384H100.271C100.322 64.0454 100.493 64.4352 100.791 64.7046C101.095 64.9676 101.488 65.0975 101.97 65.0975C102.458 65.0975 102.847 64.9898 103.136 64.768C103.421 64.5398 103.567 64.2229 103.567 63.8173C103.567 63.4814 103.453 63.2025 103.225 62.9807C102.996 62.762 102.718 62.5814 102.388 62.4356C102.058 62.293 101.583 62.1282 100.968 61.9413C100.087 61.6719 99.3712 61.4026 98.8134 61.13C98.2557 60.8607 97.774 60.4582 97.3684 59.9258C96.9691 59.3935 96.7726 58.6963 96.7726 57.8343C96.7726 56.5668 97.2321 55.5749 98.1543 54.8556C99.0733 54.1299 100.274 53.7654 101.754 53.7654C103.256 53.7654 104.47 54.1299 105.392 54.8556C106.311 55.5749 106.805 56.5763 106.875 57.8597H103.275C103.25 57.4224 103.085 57.0738 102.781 56.8203C102.483 56.5668 102.103 56.44 101.64 56.44C101.234 56.44 100.908 56.5478 100.664 56.7569C100.417 56.9692 100.296 57.2766 100.296 57.6822C100.296 58.1227 100.502 58.4681 100.918 58.7216C101.33 58.9688 101.976 59.2287 102.857 59.5075C103.744 59.8118 104.46 60.1001 105.012 60.3695C105.56 60.642 106.039 61.0381 106.444 61.561C106.85 62.0775 107.053 62.7462 107.053 63.5638C107.053 64.3433 106.853 65.0532 106.457 65.6933C106.058 66.3271 105.484 66.8341 104.733 67.2144C103.979 67.5883 103.088 67.7721 102.058 67.7721Z" fill="#283745"/>
<path d="M114.872 67.7721C113.586 67.7721 112.407 67.4742 111.336 66.8721C110.271 66.2732 109.422 65.4398 108.788 64.375C108.16 63.3039 107.85 62.0997 107.85 60.7624C107.85 59.4283 108.16 58.2273 108.788 57.1625C109.422 56.0978 110.271 55.2675 111.336 54.6654C112.407 54.0665 113.586 53.7654 114.872 53.7654C116.156 53.7654 117.334 54.0665 118.409 54.6654C119.48 55.2675 120.326 56.0978 120.944 57.1625C121.559 58.2273 121.869 59.4283 121.869 60.7624C121.869 62.0997 121.555 63.3039 120.931 64.375C120.304 65.4398 119.461 66.2732 118.396 66.8721C117.331 67.4742 116.156 67.7721 114.872 67.7721ZM114.872 64.7299C115.962 64.7299 116.831 64.3687 117.483 63.6398C118.143 62.9141 118.472 61.9539 118.472 60.7624C118.472 59.5551 118.143 58.5917 117.483 57.8724C116.831 57.1467 115.962 56.7823 114.872 56.7823C113.773 56.7823 112.895 57.1435 112.236 57.8597C111.577 58.5695 111.247 59.5392 111.247 60.7624C111.247 61.973 111.577 62.9363 112.236 63.6525C112.895 64.3718 113.773 64.7299 114.872 64.7299Z" fill="#283745"/>
<path d="M127.973 67.7721C126.975 67.7721 126.078 67.6136 125.286 67.2904C124.5 66.9608 123.869 66.4792 123.397 65.8454C122.922 65.2053 122.675 64.4352 122.649 63.5384H126.186C126.236 64.0454 126.408 64.4352 126.705 64.7046C127.01 64.9676 127.403 65.0975 127.884 65.0975C128.372 65.0975 128.762 64.9898 129.05 64.768C129.336 64.5398 129.481 64.2229 129.481 63.8173C129.481 63.4814 129.367 63.2025 129.139 62.9807C128.911 62.762 128.632 62.5814 128.303 62.4356C127.973 62.293 127.498 62.1282 126.883 61.9413C126.002 61.6719 125.286 61.4026 124.728 61.13C124.17 60.8607 123.689 60.4582 123.283 59.9258C122.884 59.3935 122.687 58.6963 122.687 57.8343C122.687 56.5668 123.147 55.5749 124.069 54.8556C124.988 54.1299 126.189 53.7654 127.669 53.7654C129.171 53.7654 130.385 54.1299 131.307 54.8556C132.226 55.5749 132.72 56.5763 132.79 57.8597H129.19C129.164 57.4224 129 57.0738 128.695 56.8203C128.398 56.5668 128.017 56.44 127.555 56.44C127.149 56.44 126.823 56.5478 126.579 56.7569C126.331 56.9692 126.211 57.2766 126.211 57.6822C126.211 58.1227 126.417 58.4681 126.832 58.7216C127.244 58.9688 127.891 59.2287 128.772 59.5075C129.659 59.8118 130.375 60.1001 130.926 60.3695C131.475 60.642 131.953 61.0381 132.359 61.561C132.764 62.0775 132.967 62.7462 132.967 63.5638C132.967 64.3433 132.768 65.0532 132.371 65.6933C131.972 66.3271 131.399 66.8341 130.648 67.2144C129.893 67.5883 129.003 67.7721 127.973 67.7721Z" fill="#283745"/>
</svg>
