<svg xmlns="http://www.w3.org/2000/svg" xmlns:xlink="http://www.w3.org/1999/xlink" width="1920" zoomAndPan="magnify" viewBox="0 0 1440 809.999993" height="1080" preserveAspectRatio="xMidYMid meet" version="1.0"><defs><g/><clipPath id="7f148f97d7"><path d="M 468 81.472656 L 972.792969 81.472656 L 972.792969 586 L 468 586 Z M 468 81.472656 " clip-rule="nonzero"/></clipPath><clipPath id="e0623398b9"><path d="M 531.425781 143.859375 L 908.574219 143.859375 L 908.574219 521.011719 L 531.425781 521.011719 Z M 531.425781 143.859375 " clip-rule="nonzero"/></clipPath><clipPath id="06e4289b26"><path d="M 720 143.859375 C 615.851562 143.859375 531.425781 228.285156 531.425781 332.433594 C 531.425781 436.582031 615.851562 521.011719 720 521.011719 C 824.148438 521.011719 908.574219 436.582031 908.574219 332.433594 C 908.574219 228.285156 824.148438 143.859375 720 143.859375 Z M 720 143.859375 " clip-rule="nonzero"/></clipPath></defs><path fill="#2e9129" d="M 723.28125 552.488281 L 633.714844 728.753906 L 589.636719 642.496094 L 493.878906 657.9375 L 583.449219 481.671875 L 723.28125 552.488281 " fill-opacity="1" fill-rule="nonzero"/><path fill="#2e9129" d="M 862.152344 481.671875 L 946.917969 660.289062 L 851.609375 642.265625 L 805.214844 727.308594 L 720.449219 548.691406 L 862.152344 481.671875 " fill-opacity="1" fill-rule="nonzero"/><g clip-path="url(#7f148f97d7)"><path fill="#3aaa35" d="M 730.773438 85.816406 L 742.453125 97.691406 C 747.136719 102.445312 754.460938 103.410156 760.214844 100.023438 L 774.574219 91.578125 C 781.582031 87.449219 790.617188 89.867188 794.617188 96.9375 L 802.824219 111.421875 C 806.113281 117.226562 812.941406 120.046875 819.375 118.269531 L 835.4375 113.8125 C 843.273438 111.644531 851.375 116.3125 853.410156 124.175781 L 857.578125 140.285156 C 859.25 146.738281 865.109375 151.226562 871.792969 151.171875 L 888.457031 151.019531 C 896.59375 150.945312 903.203125 157.550781 903.132812 165.671875 L 902.980469 182.308594 C 902.917969 188.976562 907.417969 194.828125 913.886719 196.496094 L 930.023438 200.660156 C 937.902344 202.691406 942.578125 210.777344 940.398438 218.601562 L 935.941406 234.636719 C 934.160156 241.058594 936.984375 247.875 942.800781 251.15625 L 957.308594 259.34375 C 964.390625 263.34375 966.8125 272.359375 962.675781 279.359375 L 954.21875 293.691406 C 950.824219 299.4375 951.785156 306.753906 956.554688 311.425781 L 968.441406 323.082031 C 974.246094 328.777344 974.246094 338.109375 968.441406 343.800781 L 956.554688 355.460938 C 951.785156 360.132812 950.824219 367.445312 954.21875 373.191406 L 962.675781 387.527344 C 966.8125 394.519531 964.390625 403.542969 957.308594 407.535156 L 942.800781 415.730469 C 936.984375 419.011719 934.160156 425.824219 935.941406 432.25 L 940.398438 448.285156 C 942.578125 456.109375 937.902344 464.195312 930.023438 466.226562 L 913.886719 470.390625 C 907.417969 472.058594 902.917969 477.910156 902.980469 484.578125 L 903.132812 501.214844 C 903.203125 509.335938 896.59375 515.9375 888.457031 515.867188 L 871.792969 515.714844 C 865.109375 515.65625 859.25 520.144531 857.578125 526.601562 L 853.410156 542.710938 C 851.375 550.574219 843.273438 555.242188 835.4375 553.070312 L 819.375 548.617188 C 812.941406 546.839844 806.113281 549.660156 802.824219 555.464844 L 794.617188 569.949219 C 790.617188 577.019531 781.582031 579.429688 774.574219 575.308594 L 760.214844 566.859375 C 754.460938 563.476562 747.136719 564.4375 742.453125 569.195312 L 730.773438 581.0625 C 725.074219 586.859375 715.722656 586.859375 710.019531 581.0625 L 698.34375 569.195312 C 693.664062 564.4375 686.332031 563.476562 680.578125 566.859375 L 666.222656 575.308594 C 659.214844 579.429688 650.179688 577.019531 646.175781 569.949219 L 637.972656 555.464844 C 634.6875 549.660156 627.855469 546.839844 621.425781 548.617188 L 605.363281 553.070312 C 597.523438 555.242188 589.425781 550.574219 587.390625 542.710938 L 583.21875 526.601562 C 581.546875 520.144531 575.6875 515.65625 569.007812 515.714844 L 552.339844 515.867188 C 544.207031 515.9375 537.59375 509.335938 537.664062 501.214844 L 537.816406 484.578125 C 537.875 477.910156 533.375 472.058594 526.910156 470.390625 L 510.773438 466.226562 C 502.894531 464.195312 498.222656 456.109375 500.394531 448.285156 L 504.851562 432.25 C 506.640625 425.824219 503.8125 419.011719 497.996094 415.730469 L 483.492188 407.535156 C 476.410156 403.542969 473.988281 394.519531 478.121094 387.527344 L 486.582031 373.191406 C 489.972656 367.445312 489.007812 360.132812 484.246094 355.460938 L 472.351562 343.800781 C 466.550781 338.109375 466.550781 328.777344 472.351562 323.082031 L 484.246094 311.425781 C 489.007812 306.753906 489.972656 299.4375 486.582031 293.691406 L 478.121094 279.359375 C 473.988281 272.359375 476.410156 263.34375 483.492188 259.34375 L 497.996094 251.15625 C 503.8125 247.875 506.640625 241.058594 504.851562 234.636719 L 500.394531 218.601562 C 498.222656 210.777344 502.894531 202.691406 510.773438 200.660156 L 526.910156 196.496094 C 533.375 194.828125 537.875 188.976562 537.816406 182.308594 L 537.664062 165.671875 C 537.59375 157.550781 544.207031 150.945312 552.339844 151.019531 L 569.007812 151.171875 C 575.6875 151.226562 581.546875 146.738281 583.21875 140.285156 L 587.390625 124.175781 C 589.425781 116.3125 597.523438 111.644531 605.363281 113.8125 L 621.425781 118.269531 C 627.855469 120.046875 634.6875 117.226562 637.972656 111.421875 L 646.175781 96.9375 C 650.179688 89.867188 659.214844 87.449219 666.222656 91.578125 L 680.578125 100.023438 C 686.332031 103.410156 693.664062 102.445312 698.34375 97.691406 L 710.019531 85.816406 C 715.722656 80.027344 725.074219 80.027344 730.773438 85.816406 " fill-opacity="1" fill-rule="nonzero"/></g><path fill="#ffffff" d="M 720.398438 147.648438 C 617.777344 147.648438 534.289062 230.996094 534.289062 333.441406 C 534.289062 435.890625 617.777344 519.238281 720.398438 519.238281 C 823.019531 519.238281 906.511719 435.890625 906.511719 333.441406 C 906.511719 230.996094 823.019531 147.648438 720.398438 147.648438 Z M 720.398438 524.648438 C 694.542969 524.648438 669.460938 519.59375 645.84375 509.621094 C 623.039062 499.988281 602.554688 486.203125 584.96875 468.644531 C 567.378906 451.085938 553.566406 430.636719 543.921875 407.871094 C 533.933594 384.296875 528.867188 359.253906 528.867188 333.441406 C 528.867188 307.632812 533.933594 282.589844 543.921875 259.015625 C 553.566406 236.25 567.378906 215.800781 584.96875 198.242188 C 602.554688 180.683594 623.039062 166.894531 645.84375 157.265625 C 669.460938 147.292969 694.542969 142.238281 720.398438 142.238281 C 746.253906 142.238281 771.339844 147.292969 794.953125 157.265625 C 817.757812 166.894531 838.242188 180.683594 855.832031 198.242188 C 873.417969 215.800781 887.226562 236.25 896.875 259.015625 C 906.867188 282.589844 911.929688 307.632812 911.929688 333.441406 C 911.929688 359.253906 906.867188 384.296875 896.875 407.871094 C 887.226562 430.636719 873.417969 451.085938 855.832031 468.644531 C 838.242188 486.203125 817.757812 499.988281 794.953125 509.621094 C 771.339844 519.59375 746.253906 524.648438 720.398438 524.648438 " fill-opacity="1" fill-rule="nonzero"/><path fill="#ffffff" d="M 680.316406 446.828125 L 589.472656 357.558594 L 617.796875 328.832031 L 678.628906 388.609375 L 818.859375 233.859375 L 848.800781 260.902344 L 680.316406 446.828125 " fill-opacity="1" fill-rule="nonzero"/><g clip-path="url(#e0623398b9)"><g clip-path="url(#06e4289b26)"><path fill="#2e9129" d="M 531.425781 143.859375 L 908.574219 143.859375 L 908.574219 521.011719 L 531.425781 521.011719 Z M 531.425781 143.859375 " fill-opacity="1" fill-rule="nonzero"/></g></g><g fill="#ffffff" fill-opacity="1"><g transform="translate(587.131441, 373.6852)"><g><path d="M 26.53125 -41.5625 L 32 -41.5625 C 37.125 -41.5625 40.957031 -42.570312 43.5 -44.59375 C 46.039062 -46.625 47.3125 -49.570312 47.3125 -53.4375 C 47.3125 -57.332031 46.242188 -60.210938 44.109375 -62.078125 C 41.984375 -63.941406 38.648438 -64.875 34.109375 -64.875 L 26.53125 -64.875 Z M 64.125 -54.03125 C 64.125 -45.570312 61.484375 -39.101562 56.203125 -34.625 C 50.921875 -30.15625 43.410156 -27.921875 33.671875 -27.921875 L 26.53125 -27.921875 L 26.53125 0 L 9.875 0 L 9.875 -78.515625 L 34.953125 -78.515625 C 44.484375 -78.515625 51.726562 -76.460938 56.6875 -72.359375 C 61.644531 -68.265625 64.125 -62.15625 64.125 -54.03125 Z M 64.125 -54.03125 "/></g></g></g><g fill="#ffffff" fill-opacity="1"><g transform="translate(656.185997, 373.6852)"><g><path d="M 46.71875 0 L 43.546875 -8.15625 L 43.125 -8.15625 C 40.363281 -4.6875 37.523438 -2.28125 34.609375 -0.9375 C 31.691406 0.40625 27.890625 1.078125 23.203125 1.078125 C 17.429688 1.078125 12.890625 -0.566406 9.578125 -3.859375 C 6.273438 -7.160156 4.625 -11.851562 4.625 -17.9375 C 4.625 -24.3125 6.847656 -29.007812 11.296875 -32.03125 C 15.753906 -35.0625 22.476562 -36.738281 31.46875 -37.0625 L 41.890625 -37.375 L 41.890625 -40.015625 C 41.890625 -46.097656 38.773438 -49.140625 32.546875 -49.140625 C 27.742188 -49.140625 22.101562 -47.6875 15.625 -44.78125 L 10.203125 -55.84375 C 17.109375 -59.46875 24.769531 -61.28125 33.1875 -61.28125 C 41.238281 -61.28125 47.410156 -59.523438 51.703125 -56.015625 C 56.003906 -52.503906 58.15625 -47.171875 58.15625 -40.015625 L 58.15625 0 Z M 41.890625 -27.8125 L 35.546875 -27.609375 C 30.785156 -27.460938 27.238281 -26.597656 24.90625 -25.015625 C 22.582031 -23.441406 21.421875 -21.046875 21.421875 -17.828125 C 21.421875 -13.210938 24.070312 -10.90625 29.375 -10.90625 C 33.164062 -10.90625 36.195312 -11.992188 38.46875 -14.171875 C 40.75 -16.359375 41.890625 -19.257812 41.890625 -22.875 Z M 41.890625 -27.8125 "/></g></g></g><g fill="#ffffff" fill-opacity="1"><g transform="translate(722.609408, 373.6852)"><g><path d="M 60.84375 -60.046875 L 60.84375 -51.71875 L 51.453125 -49.296875 C 53.171875 -46.609375 54.03125 -43.601562 54.03125 -40.28125 C 54.03125 -33.832031 51.78125 -28.804688 47.28125 -25.203125 C 42.789062 -21.609375 36.550781 -19.8125 28.5625 -19.8125 L 25.609375 -19.984375 L 23.203125 -20.25 C 21.515625 -18.957031 20.671875 -17.523438 20.671875 -15.953125 C 20.671875 -13.585938 23.679688 -12.40625 29.703125 -12.40625 L 39.90625 -12.40625 C 46.488281 -12.40625 51.503906 -10.988281 54.953125 -8.15625 C 58.410156 -5.332031 60.140625 -1.179688 60.140625 4.296875 C 60.140625 11.316406 57.210938 16.757812 51.359375 20.625 C 45.515625 24.488281 37.113281 26.421875 26.15625 26.421875 C 17.78125 26.421875 11.378906 24.960938 6.953125 22.046875 C 2.535156 19.128906 0.328125 15.039062 0.328125 9.78125 C 0.328125 6.15625 1.453125 3.125 3.703125 0.6875 C 5.960938 -1.738281 9.273438 -3.472656 13.640625 -4.515625 C 11.953125 -5.222656 10.484375 -6.390625 9.234375 -8.015625 C 7.984375 -9.648438 7.359375 -11.382812 7.359375 -13.21875 C 7.359375 -15.5 8.019531 -17.398438 9.34375 -18.921875 C 10.664062 -20.453125 12.582031 -21.953125 15.09375 -23.421875 C 11.9375 -24.773438 9.4375 -26.957031 7.59375 -29.96875 C 5.75 -32.976562 4.828125 -36.519531 4.828125 -40.59375 C 4.828125 -47.144531 6.957031 -52.210938 11.21875 -55.796875 C 15.476562 -59.378906 21.566406 -61.171875 29.484375 -61.171875 C 31.160156 -61.171875 33.15625 -61.015625 35.46875 -60.703125 C 37.78125 -60.398438 39.257812 -60.179688 39.90625 -60.046875 Z M 14.5 8.484375 C 14.5 10.742188 15.582031 12.515625 17.75 13.796875 C 19.914062 15.085938 22.953125 15.734375 26.859375 15.734375 C 32.722656 15.734375 37.316406 14.925781 40.640625 13.3125 C 43.972656 11.707031 45.640625 9.507812 45.640625 6.71875 C 45.640625 4.457031 44.65625 2.894531 42.6875 2.03125 C 40.71875 1.175781 37.675781 0.75 33.5625 0.75 L 25.078125 0.75 C 22.066406 0.75 19.550781 1.457031 17.53125 2.875 C 15.507812 4.289062 14.5 6.160156 14.5 8.484375 Z M 20.46875 -40.390625 C 20.46875 -37.128906 21.207031 -34.550781 22.6875 -32.65625 C 24.175781 -30.757812 26.441406 -29.8125 29.484375 -29.8125 C 32.566406 -29.8125 34.820312 -30.757812 36.25 -32.65625 C 37.675781 -34.550781 38.390625 -37.128906 38.390625 -40.390625 C 38.390625 -47.617188 35.421875 -51.234375 29.484375 -51.234375 C 23.472656 -51.234375 20.46875 -47.617188 20.46875 -40.390625 Z M 20.46875 -40.390625 "/></g></g></g><g fill="#ffffff" fill-opacity="1"><g transform="translate(784.737044, 373.6852)"><g><path d="M 21.640625 -30.125 C 21.640625 -24.1875 22.613281 -19.691406 24.5625 -16.640625 C 26.519531 -13.597656 29.703125 -12.078125 34.109375 -12.078125 C 38.472656 -12.078125 41.613281 -13.585938 43.53125 -16.609375 C 45.445312 -19.640625 46.40625 -24.144531 46.40625 -30.125 C 46.40625 -36.070312 45.4375 -40.53125 43.5 -43.5 C 41.5625 -46.46875 38.394531 -47.953125 34 -47.953125 C 29.625 -47.953125 26.46875 -46.472656 24.53125 -43.515625 C 22.601562 -40.566406 21.640625 -36.101562 21.640625 -30.125 Z M 63.15625 -30.125 C 63.15625 -20.351562 60.578125 -12.707031 55.421875 -7.1875 C 50.265625 -1.675781 43.085938 1.078125 33.890625 1.078125 C 28.117188 1.078125 23.03125 -0.179688 18.625 -2.703125 C 14.226562 -5.234375 10.847656 -8.859375 8.484375 -13.578125 C 6.117188 -18.304688 4.9375 -23.820312 4.9375 -30.125 C 4.9375 -39.9375 7.492188 -47.5625 12.609375 -53 C 17.734375 -58.445312 24.929688 -61.171875 34.203125 -61.171875 C 39.972656 -61.171875 45.054688 -59.914062 49.453125 -57.40625 C 53.859375 -54.90625 57.242188 -51.304688 59.609375 -46.609375 C 61.972656 -41.921875 63.15625 -36.425781 63.15625 -30.125 Z M 63.15625 -30.125 "/></g></g></g></svg>